<svg xmlns="http://www.w3.org/2000/svg" xmlns:xlink="http://www.w3.org/1999/xlink" width="12.891" height="16.847" viewBox="0 0 12.891 16.847">
    <defs>
        <clipPath id="clip-path">
            <rect id="Rectangle_4539" data-name="Rectangle 4539" width="12.891" height="16.847" transform="translate(0 0)" fill="none"/>
        </clipPath>
    </defs>
    <g id="Groupe_3843" data-name="Groupe 3843" transform="translate(0 0)">
        <g id="Groupe_3842" data-name="Groupe 3842" clip-path="url(#clip-path)">
            <path id="Tracé_15217" data-name="Tracé 15217" d="M12.44,0V.1h0V0H.451A.447.447,0,0,0,.133.132.455.455,0,0,0,0,.452V16.394a.451.451,0,0,0,.451.453h11.99a.451.451,0,0,0,.45-.451V.453A.453.453,0,0,0,12.44,0M8.1,15.946H4.8V13.8H8.1Zm.57-3.052H4.221a.453.453,0,0,0-.452.452v2.6H.9V.9H11.988l0,15.045H9.122v-2.6a.453.453,0,0,0-.452-.452" fill="#4b7388"/>
            <path id="Tracé_15218" data-name="Tracé 15218" d="M4.358,2.424H3.787c-.144,0-.209.186-.209.369v1.4c0,.184.065.369.209.369h.571c.145,0,.209-.185.209-.369v-1.4c0-.221-.084-.369-.209-.369" fill="#4b7388"/>
            <path id="Tracé_15219" data-name="Tracé 15219" d="M6.73,2.424H6.159c-.123,0-.209.152-.209.369v1.4c0,.184.065.369.209.369H6.73c.145,0,.209-.185.209-.369v-1.4c0-.221-.084-.369-.209-.369" fill="#4b7388"/>
            <path id="Tracé_15220" data-name="Tracé 15220" d="M8.532,4.562H9.1c.144,0,.209-.186.209-.369v-1.4c0-.221-.084-.369-.209-.369H8.532c-.123,0-.209.152-.209.369v1.4c0,.183.064.369.209.369" fill="#4b7388"/>
            <path id="Tracé_15221" data-name="Tracé 15221" d="M4.358,5.736H3.787c-.125,0-.209.148-.209.369v1.4c0,.221.084.369.209.369h.571v0c.145,0,.209-.185.209-.369v-1.4c0-.221-.084-.369-.209-.369" fill="#4b7388"/>
            <path id="Tracé_15222" data-name="Tracé 15222" d="M6.73,5.736H6.159c-.144,0-.209.186-.209.369v1.4c0,.184.065.369.209.369H6.73v0c.145,0,.209-.185.209-.369v-1.4c0-.221-.084-.369-.209-.369" fill="#4b7388"/>
            <path id="Tracé_15223" data-name="Tracé 15223" d="M8.532,7.878H9.1v0c.144,0,.209-.185.209-.369v-1.4c0-.221-.084-.369-.209-.369H8.532c-.145,0-.209.185-.209.369v1.4c0,.184.064.369.209.369" fill="#4b7388"/>
            <path id="Tracé_15224" data-name="Tracé 15224" d="M4.358,9.061H3.787c-.144,0-.209.186-.209.369v1.4c0,.22.084.369.209.369h.571c.125,0,.209-.149.209-.369V9.43c0-.183-.064-.369-.209-.369" fill="#4b7388"/>
            <path id="Tracé_15225" data-name="Tracé 15225" d="M6.73,9.061H6.159c-.144,0-.209.186-.209.369v1.4c0,.183.065.369.209.369H6.73c.125,0,.209-.149.209-.369V9.43c0-.183-.064-.369-.209-.369" fill="#4b7388"/>
            <path id="Tracé_15226" data-name="Tracé 15226" d="M9.312,10.829V9.43c0-.184-.064-.37-.209-.37H8.532c-.144,0-.209.186-.209.37v1.4c0,.184.065.369.209.369H9.1c.125,0,.209-.148.209-.369" fill="#4b7388"/>
        </g>
    </g>
</svg>
