<svg xmlns="http://www.w3.org/2000/svg" xmlns:xlink="http://www.w3.org/1999/xlink" width="15.711" height="15.021" viewBox="0 0 15.711 15.021">
    <defs>
        <clipPath id="clip-path">
            <rect id="Rectangle_4540" data-name="Rectangle 4540" width="15.711" height="15.021" transform="translate(0 0)" fill="#fff"/>
        </clipPath>
    </defs>
    <g id="Groupe_3845" data-name="Groupe 3845" transform="translate(0 0)" clip-path="url(#clip-path)">
        <path id="Tracé_15227" data-name="Tracé 15227" d="M15.587,6.531,8.108.1a.407.407,0,0,0-.533,0L.125,6.5a.41.41,0,0,0,.537.617l.781-.675v8.167a.41.41,0,0,0,.408.409H13.833a.409.409,0,0,0,.408-.408V6.45l.778.668a.416.416,0,0,0,.291.115.409.409,0,0,0,.277-.7m-6.5,7.68H6.6V10.053H9.089ZM9.5,9.236H6.184a.409.409,0,0,0-.409.409v4.566H2.255V5.748L7.839.949l5.582,4.793v8.469H9.906V9.645A.409.409,0,0,0,9.5,9.236" fill="#fff"/>
        <path id="Tracé_15228" data-name="Tracé 15228" d="M7.262,4.032H6.789c-.127,0-.215.154-.215.375V5.539c0,.224.086.375.215.375h.473c.126,0,.215-.154.215-.375V4.407c0-.225-.087-.375-.215-.375" fill="#fff"/>
        <path id="Tracé_15229" data-name="Tracé 15229" d="M8.919,4.032H8.446c-.127,0-.215.154-.215.375V5.539c0,.221.088.375.215.375h.473c.127,0,.215-.154.215-.375V4.407c0-.225-.086-.375-.215-.375" fill="#fff"/>
        <path id="Tracé_15230" data-name="Tracé 15230" d="M7.262,6.2H6.789c-.127,0-.215.154-.215.375V7.7c0,.224.086.375.215.375h.473v0c.126,0,.215-.154.215-.375V6.571c0-.225-.087-.375-.215-.375" fill="#fff"/>
        <path id="Tracé_15231" data-name="Tracé 15231" d="M8.919,6.2H8.446c-.127,0-.215.154-.215.375V7.7c0,.22.088.375.215.375h.473v0c.127,0,.215-.154.215-.375V6.571c0-.225-.086-.375-.215-.375" fill="#fff"/>
    </g>
</svg>
