<svg id="Picto_pièces" data-name="Picto pièces" xmlns="http://www.w3.org/2000/svg" width="15" height="15" viewBox="0 0 15 15">
    <path id="Tracé_217" data-name="Tracé 217" d="M17.417,50.333A1.236,1.236,0,0,0,17,50.41V48.25A1.252,1.252,0,0,0,15.75,47H9.917a1.252,1.252,0,0,0-1.25,1.25v2.16a1.236,1.236,0,0,0-.417-.077A1.252,1.252,0,0,0,7,51.583v3.333a1.252,1.252,0,0,0,1.25,1.25h1.922l-.65,1.952a.416.416,0,0,0,.263.527.407.407,0,0,0,.132.022.416.416,0,0,0,.4-.285l.738-2.215h3.567l.738,2.215a.416.416,0,0,0,.4.285.407.407,0,0,0,.132-.022.416.416,0,0,0,.263-.527l-.65-1.952h1.922a1.252,1.252,0,0,0,1.25-1.25V51.583A1.252,1.252,0,0,0,17.417,50.333ZM9.5,48.25a.417.417,0,0,1,.417-.417H15.75a.417.417,0,0,1,.417.417v4.178A2.059,2.059,0,0,0,14.917,52H10.75a2.059,2.059,0,0,0-1.25.428V48.25ZM7.833,54.917V51.583a.417.417,0,1,1,.833,0v3.75H8.25A.417.417,0,0,1,7.833,54.917ZM9.5,54.083a1.252,1.252,0,0,1,1.25-1.25h4.167a1.252,1.252,0,0,1,1.25,1.25v1.25H9.5Zm8.333.833a.417.417,0,0,1-.417.417H17v-3.75a.417.417,0,1,1,.833,0Z" transform="translate(-3.667 -43.667)" fill="#4b7388"/>
    <path id="Tracé_218" data-name="Tracé 218" d="M6.668,57.167H5.474l.025-10H6.75a.416.416,0,0,0,.4-.518l-.833-3.333a.417.417,0,0,0-.4-.316H4.25a.417.417,0,0,0-.4.316l-.833,3.333a.416.416,0,0,0,.4.518H4.666l-.025,10h-1.2a.417.417,0,1,0,0,.833H6.668a.417.417,0,1,0,0-.833ZM4.576,43.833H5.591l.625,2.5H3.951Z" transform="translate(-3 -43)" fill="#4b7388"/>
</svg>
